<svg width="19" height="19" viewBox="0 0 19 19" fill="none" xmlns="http://www.w3.org/2000/svg">
<path d="M9.5 18.25C4.66751 18.25 0.75 14.3325 0.75 9.5C0.75 4.66751 4.66751 0.75 9.5 0.75C14.3325 0.75 18.25 4.66751 18.25 9.5C18.2447 14.3303 14.3303 18.2447 9.5 18.25ZM2.5 9.6505C2.5414 13.5016 5.68597 16.5959 9.53722 16.5752C13.3885 16.5544 16.4996 13.4266 16.4996 9.57525C16.4996 5.72394 13.3885 2.59605 9.53722 2.57525C5.68597 2.55465 2.5414 5.64892 2.5 9.5V9.6505ZM10.375 13.875H8.625V10.375H5.125V8.625H8.625V5.125H10.375V8.625H13.875V10.375H10.375V13.875Z" fill="black"/>
</svg>
