<svg width="26" height="28" viewBox="0 0 26 28" fill="none" xmlns="http://www.w3.org/2000/svg">
<path d="M23.0155 27.0444L14.443 17.9941C10.6295 20.8559 5.37463 20.1559 2.35428 16.3837C-0.666067 12.6116 -0.444291 7.0257 2.86447 3.53352C6.17236 0.0398114 11.4648 -0.195298 15.0391 2.99268C18.6133 6.18066 19.2769 11.728 16.5655 15.7537L25.138 24.804L23.017 27.0429L23.0155 27.0444ZM9.22747 3.91667C6.38302 3.91599 3.92901 6.02359 3.35118 8.96346C2.77336 11.9033 4.23054 14.8675 6.84049 16.0612C9.45044 17.255 12.4958 16.3503 14.1328 13.8949C15.7699 11.4395 15.5486 8.10827 13.603 5.91802L14.5105 6.86802L13.4875 5.79135L13.4695 5.77235C12.3472 4.58038 10.8196 3.91214 9.22747 3.91667Z" fill="#AF7170"/>
</svg>
